<?xml version="1.0" standalone="no"?>
<!DOCTYPE svg PUBLIC "-//W3C//DTD SVG 20010904//EN"
 "http://www.w3.org/TR/2001/REC-SVG-20010904/DTD/svg10.dtd">
<svg version="1.0" xmlns="http://www.w3.org/2000/svg"
 width="512.000000pt" height="512.000000pt" viewBox="0 0 512.000000 512.000000"
 preserveAspectRatio="xMidYMid meet">
<metadata>
Created by potrace 1.14, written by Peter Selinger 2001-2017
</metadata>
<g transform="translate(0.000000,512.000000) scale(0.100000,-0.100000)"
fill="#000000" stroke="none">
<path d="M1417 5082 c-17 -14 -61 -61 -97 -104 -36 -43 -70 -84 -77 -92 -7 -7
-9 -16 -6 -20 4 -3 1 -6 -5 -6 -6 0 -17 -11 -24 -24 -34 -64 -77 -154 -84
-176 -15 -49 -16 -55 -17 -82 0 -16 -3 -28 -6 -28 -17 0 -2 -122 20 -162 5
-10 9 -25 9 -33 0 -8 5 -15 10 -15 6 0 10 -5 10 -11 0 -19 64 -78 117 -107
l52 -28 -52 -23 c-164 -75 -265 -128 -303 -160 -7 -6 -14 -8 -16 -6 -2 2 -24
-12 -48 -31 -25 -19 -58 -44 -74 -57 -43 -32 -117 -99 -135 -121 -9 -10 -25
-28 -36 -40 -31 -32 -99 -135 -122 -187 -43 -93 -74 -239 -50 -239 9 0 9 -2 0
-8 -22 -14 -4 -136 34 -239 12 -32 16 -94 17 -288 2 -271 6 -251 -62 -303 -83
-62 -193 -168 -241 -232 -14 -19 -34 -42 -43 -51 -10 -9 -15 -19 -11 -23 3 -3
1 -6 -5 -6 -7 0 -12 -7 -12 -15 0 -8 -5 -15 -11 -15 -5 0 -7 -4 -4 -10 3 -5 2
-10 -4 -10 -9 0 -81 -142 -96 -190 -38 -125 -40 -139 -40 -400 1 -195 4 -248
19 -310 10 -41 21 -79 25 -85 3 -5 6 -12 6 -15 1 -7 34 -80 48 -105 6 -11 20
-37 31 -58 11 -21 28 -46 38 -57 10 -10 18 -22 18 -25 0 -4 6 -12 13 -19 6 -8
23 -28 37 -45 22 -27 53 -59 176 -179 13 -12 26 -22 30 -22 4 0 14 -7 23 -15
52 -47 62 -55 69 -55 5 0 17 -8 28 -18 10 -10 26 -21 34 -25 8 -4 35 -21 60
-37 25 -16 79 -47 120 -67 41 -21 76 -41 78 -45 2 -5 8 -8 12 -8 5 0 40 -14
77 -31 37 -17 77 -35 88 -40 24 -10 186 -70 200 -73 6 -2 21 -8 35 -13 30 -13
88 -26 93 -21 2 2 11 -3 19 -9 8 -7 27 -14 42 -15 14 -1 26 -5 26 -8 0 -3 10
-7 23 -8 27 -3 47 -7 67 -15 20 -7 58 -15 106 -22 21 -3 46 -8 54 -11 15 -6
22 -7 90 -19 104 -17 151 -24 290 -40 128 -14 257 -20 485 -20 228 0 331 4
465 20 19 2 60 6 91 10 31 3 65 7 75 9 11 2 39 7 64 11 89 13 135 22 135 25 0
1 14 3 30 5 17 2 41 6 55 10 14 3 36 8 50 11 14 3 33 7 42 10 14 4 28 7 73 17
6 2 16 6 23 10 6 5 12 6 12 3 0 -3 18 1 40 9 22 8 40 12 40 8 0 -3 7 0 15 7 8
7 15 9 15 5 0 -4 7 -2 15 5 8 7 15 9 15 5 0 -4 7 -1 17 6 9 8 18 13 20 11 6
-6 63 9 63 17 0 4 9 7 19 8 18 2 129 44 218 84 24 10 47 19 53 19 5 0 10 5 10
11 0 5 5 7 10 4 6 -3 10 -1 10 6 0 7 3 10 6 6 5 -5 27 6 132 65 17 10 49 27
70 39 20 12 44 27 53 35 8 8 19 14 23 14 3 0 36 22 71 50 35 27 66 50 69 50 3
0 21 16 42 35 20 19 41 35 45 35 5 0 8 3 6 8 -1 4 2 9 7 12 8 4 37 34 111 115
6 7 21 26 35 44 14 18 31 39 38 47 7 8 10 14 5 14 -4 0 -3 4 3 8 34 21 129
230 140 305 2 16 7 34 11 40 15 23 12 483 -3 555 -22 107 -86 263 -116 283 -6
3 -9 9 -9 13 2 17 0 25 -16 43 -10 11 -29 35 -43 53 -14 18 -31 39 -37 46 -7
7 -13 15 -13 18 0 2 -34 39 -75 80 -41 42 -75 73 -75 70 0 -3 -11 6 -25 20
-13 13 -42 37 -62 53 -21 15 -41 31 -44 36 -3 4 -4 119 -3 255 3 216 6 254 23
302 38 107 47 233 24 327 -7 32 -15 65 -17 74 -17 68 -104 207 -185 293 -64
67 -194 176 -210 176 -6 0 -11 5 -11 10 0 6 -4 10 -9 10 -6 0 -29 13 -53 29
-43 29 -200 110 -290 150 -27 12 -48 25 -48 29 0 4 16 14 37 21 86 31 173 163
169 258 0 22 3 39 8 36 4 -3 5 5 1 18 -5 13 -9 33 -10 44 -1 11 -3 20 -5 20
-1 0 -3 9 -4 20 -3 25 -39 128 -47 135 -3 3 -20 31 -38 63 -39 69 -147 207
-161 207 -6 0 -10 6 -10 13 0 12 -76 77 -91 77 -20 0 -64 -23 -81 -43 -11 -12
-37 -41 -59 -64 -21 -23 -39 -47 -39 -54 0 -7 -3 -9 -7 -6 -5 6 -21 -14 -58
-72 -5 -9 -20 -30 -31 -46 -20 -28 -74 -138 -78 -160 -1 -5 -5 -19 -9 -30 -19
-60 -26 -171 -12 -210 10 -28 26 -67 36 -87 8 -15 6 -16 -14 -9 -12 5 -44 11
-70 15 -27 4 -59 10 -70 12 -12 3 -40 7 -62 9 -22 2 -50 6 -63 9 -28 6 -139
17 -199 20 -24 1 -48 7 -55 14 -7 7 -9 12 -4 12 4 0 1 6 -6 14 -7 7 -36 40
-65 73 -107 123 -113 128 -152 128 -32 0 -45 -8 -88 -53 -28 -28 -49 -52 -47
-52 2 0 -7 -10 -19 -23 -39 -40 -67 -77 -67 -86 0 -18 -36 -26 -160 -36 -41
-4 -93 -9 -115 -12 -22 -2 -53 -6 -70 -8 -16 -2 -30 -4 -30 -5 0 -2 -32 -8
-80 -15 -22 -3 -50 -8 -63 -10 -19 -3 -22 0 -16 18 3 12 10 27 14 32 12 16 31
145 21 145 -4 0 -7 12 -8 28 -5 80 -7 92 -15 92 -4 0 -8 7 -8 15 0 39 -110
226 -180 305 -63 71 -120 130 -128 131 -38 7 -57 3 -85 -19z"/>
</g>
</svg>
